<?xml version="1.0" encoding="utf-8"?>
<!-- Generator: Adobe Illustrator 18.1.1, SVG Export Plug-In . SVG Version: 6.00 Build 0)  -->
<svg version="1.1" id="Layer_1" xmlns="http://www.w3.org/2000/svg" xmlns:xlink="http://www.w3.org/1999/xlink" x="0px" y="0px"
	 viewBox="0 0 125.8 49.4" enable-background="new 0 0 125.8 49.4" xml:space="preserve">
<path fill="#CB6828" d="M21.3,49.2c-20.3-21,1.3-24.8,1.3-24.8l44.6,0.2c0,0,1.4,1.9,2.2,2.3c0,0,52,0.2,53.3,0.3
	c3.2-0.3,2.9-2.9,2.9-2.9s0.4-6.7,0-7.1c-0.4-1.9-3.4-1.7-3.4-1.7l-52.4-0.1c-1.4-0.3-2.6,1.9-2.6,1.9l-47.5-0.3
	c-5.5-3.2-3.6-8-3.6-8s0.7-2.2,2.8-1.6c0,0,3,0.2,3.3-1.4s0.3-3.3,0.3-3.3c-0.6-3.1-2.9-2.5-2.9-2.5s-17-0.4-17.4,0
	C-0.1,2.1,1,5,1,5s0.3,1.5,1.6,2c1.7,0.3,2.7-0.3,3.7,0.6c3.1,1.6,0.6,7.9-1.4,8.8s-3.6,0.2-4.5,1s-0.3,7.5,0.1,9.4
	C8.5,52.8,21.3,49.2,21.3,49.2z"/>
<path fill="#983620" d="M29.6,28.8c-1.8,0.1-3.2,2.5-3.9,3.9c-0.8-1.4-2.4-3.7-4.2-3.7c-2.5,0.1-4.5,2.2-4.5,4.8
	c0.1,2.5,9,10.5,9,10.5s8.4-8.5,8.3-11.1C34.3,30.7,32.2,28.7,29.6,28.8z"/>
<text transform="matrix(1 0 0 1 42.4788 39.9172)" font-family="'HelveticaNeue-Bold'" font-size="13.0338">Mission</text>
</svg>
