<?xml version="1.0" encoding="utf-8"?>
<!-- Generator: Adobe Illustrator 18.1.1, SVG Export Plug-In . SVG Version: 6.00 Build 0)  -->
<svg version="1.1" id="Layer_1" xmlns="http://www.w3.org/2000/svg" xmlns:xlink="http://www.w3.org/1999/xlink" x="0px" y="0px"
	 viewBox="0 0 347.6 136.5" enable-background="new 0 0 347.6 136.5" xml:space="preserve">
<path fill="#CB6828" d="M58.9,136c-56.1-58.1,3.7-68.5,3.7-68.5L185.7,68c0,0,3.8,5.3,6.1,6.2c0,0,143.6,0.7,147.3,0.8
	c8.8-0.9,8-7.9,8-7.9s1.2-18.5-0.1-19.7c-1.1-5.3-9.3-4.6-9.3-4.6L193,42.5c-4-0.9-7.2,5.1-7.2,5.1L54.7,46.7
	c-15.2-8.7-9.8-22-9.8-22s1.8-6.1,7.6-4.3c0,0,8.2,0.6,9.2-3.9s0.9-9.2,0.9-9.2c-1.7-8.5-7.9-6.8-7.9-6.8s-47-1-48-0.1
	c-6.8,5.5-3.9,13.3-3.9,13.3s1,4,4.3,5.6c4.7,0.7,7.3-0.9,10.4,1.7c8.5,4.3,1.7,21.7-3.8,24.3S3.7,45.8,1.3,48S0.4,68.7,1.5,73.9
	C23.3,145.7,58.9,136,58.9,136z"/>
<path fill="#983620" d="M81.8,79.6C77,79.8,73,86.4,71,90.5c-2.3-3.9-6.7-10.3-11.6-10.1c-7,0.2-12.5,6.1-12.3,13.1
	c0.2,7,24.9,29,24.9,29S95.2,99,95,91.9C94.7,84.9,88.8,79.4,81.8,79.6z"/>
</svg>
